<?xml version="1.0" encoding="utf-8"?>
<!-- Generator: Adobe Illustrator 23.1.1, SVG Export Plug-In . SVG Version: 6.00 Build 0)  -->
<svg version="1.1" id="Layer_1" xmlns="http://www.w3.org/2000/svg" xmlns:xlink="http://www.w3.org/1999/xlink" x="0px" y="0px"
	 viewBox="0 0 841.9 595.3" style="enable-background:new 0 0 841.9 595.3;" xml:space="preserve">
<style type="text/css">
	.st0{fill:#0F0F0F;}
</style>
<g>
	<g>
		<path class="st0" d="M156.4,235.1c25.4,25.4,50.7,50.7,76.1,76.1c40.1,40.1,80.1,80.1,120.2,120.2c9.2,9.2,18.3,18.3,27.5,27.5
			c22.9,22.9,61.9,23,84.9,0c25-25,50-50,75-75c39.9-39.9,79.8-79.8,119.7-119.7c9.2-9.2,18.4-18.4,27.6-27.6
			c10.9-10.9,17.6-27,17.6-42.4c0-14.7-6.5-32.3-17.6-42.4C676,141.3,661,133.5,645,134.2c-15.9,0.7-30.9,6.1-42.4,17.6
			c-25,25-50,50-75,75c-39.9,39.9-79.8,79.8-119.7,119.7c-9.2,9.2-18.4,18.4-27.6,27.6c28.3,0,56.6,0,84.9,0
			c-25.4-25.4-50.7-50.7-76.1-76.1C349,257.9,309,217.9,268.9,177.8c-9.2-9.2-18.3-18.3-27.5-27.5c-10.9-10.9-27-17.6-42.4-17.6
			c-14.7,0-32.3,6.5-42.4,17.6c-10.5,11.4-18.3,26.4-17.6,42.4C139.5,208.6,144.9,223.6,156.4,235.1L156.4,235.1z"/>
	</g>
</g>
</svg>
